<?xml version="1.0" encoding="UTF-8"?> <svg xmlns="http://www.w3.org/2000/svg" xmlns:xlink="http://www.w3.org/1999/xlink" version="1.1" id="Layer_1" x="0px" y="0px" viewBox="0 0 100 100" style="enable-background:new 0 0 100 100;" xml:space="preserve"> <g> <path style="fill:#91F200;" d="M85.4,24.39l-3.26-13.07c-0.33-1.33-1.52-2.26-2.89-2.26c-1,0-1.93,0.5-2.48,1.33l-6.31,9.41 c-0.42,0.63-1.07,1.08-1.81,1.25l-7.72,1.78c0,0-10.73-1.87-10.73,18.93c0,13.73,13.64,19.91,21.49,17.95 c7.85-1.97,13.81-9,13.81-12.17V25.11C85.49,24.87,85.46,24.63,85.4,24.39z"></path> <path d="M43.21,78.76c2.41,0,4.73-0.93,6.47-2.59c3.77,3.58,9.73,3.43,13.31-0.34c0.78-0.82,1.41-1.78,1.85-2.82 c0.63-1.5-0.07-3.23-1.57-3.86s-3.23,0.07-3.86,1.57c-0.75,1.8-2.81,2.65-4.62,1.9c-1.32-0.55-2.18-1.85-2.17-3.28 c-0.01-0.17-0.04-0.34-0.08-0.51c0.54-0.38,1.01-0.85,1.4-1.39l2.35-3.32c1.56-1.62,1.51-4.21-0.11-5.77 c-0.91-0.87-2.17-1.28-3.42-1.1h-6.21c-2.23-0.32-4.3,1.22-4.63,3.45c-0.18,1.25,0.22,2.51,1.1,3.42l2.35,3.32 c0.39,0.54,0.87,1.01,1.41,1.39c-0.01,0.16-0.01,0.32,0,0.48c0.01,1.95-1.56,3.54-3.51,3.55c-1.43,0.01-2.73-0.85-3.28-2.17 c-0.63-1.5-2.36-2.2-3.86-1.57c-1.5,0.63-2.2,2.36-1.57,3.86l0,0C36.04,76.47,39.44,78.74,43.21,78.76z"></path> <circle cx="35.45" cy="45.72" r="6"></circle> <circle cx="63.94" cy="45.72" r="6"></circle> <path d="M97.6,69.64l-9.88-3.38c0.73-2.23,1.25-4.52,1.58-6.85l7.5-1.99c2.05-0.54,3.27-2.64,2.73-4.7 c-0.54-2.05-2.64-3.27-4.7-2.73l0,0l-5.22,1.39c-0.17-2.79-0.62-5.55-1.37-8.24c-0.77-2.75-1.17-5.59-1.18-8.45V12.46 c0.04-2.58-1.51-4.92-3.91-5.88c-0.75-0.31-1.55-0.47-2.37-0.47c-1.67,0-3.26,0.67-4.44,1.85c-2.66,2.64-6.72,6.66-10.03,9.98 c-5.42-1.08-10.95-1.57-16.47-1.46c-5.59-0.11-11.17,0.39-16.65,1.47c-3.32-3.32-7.38-7.35-10.04-9.99 c-1.17-1.18-2.77-1.85-4.44-1.85c-0.84,0-1.68,0.17-2.46,0.49c-2.39,0.97-3.94,3.3-3.91,5.88V34.7c-0.01,2.96-0.4,5.9-1.18,8.75 c-0.72,2.52-1.18,5.11-1.39,7.72L5.56,50c-2.03-0.6-4.17,0.56-4.76,2.6c-0.6,2.03,0.56,4.17,2.6,4.76c0.07,0.02,0.13,0.04,0.2,0.05 l6.46,1.71c0.34,2.53,0.91,5.01,1.73,7.43l-9,3.09c-2.04,0.58-3.22,2.71-2.63,4.74c0.58,2.04,2.71,3.22,4.74,2.63 c0.13-0.04,0.25-0.08,0.37-0.13l9.63-3.29c6.34,11.21,17.69,18.68,30.49,20.07c1.44,0.15,2.89,0.22,4.34,0.22 c14.52,0,27.89-7.88,34.91-20.58l10.47,3.53c2.04,0.58,4.16-0.6,4.74-2.63c0.54-1.89-0.44-3.88-2.26-4.61L97.6,69.64z M81.27,61.54 c-0.19,0.78-0.4,1.54-0.65,2.29l-3.53-1.18L81.27,61.54z M23.25,62.64l-4.38,1.48c-0.33-1-0.61-1.94-0.82-2.88L23.25,62.64z M37.74,65.78c0.2-0.07,0.39-0.16,0.58-0.27l0.22-0.14l0.34-0.25l0.21-0.19c0.11-0.11,0.22-0.23,0.32-0.35l0.13-0.16 c0.1-0.14,0.2-0.29,0.28-0.45l0.08-0.14c0.08-0.18,0.15-0.36,0.2-0.54v-0.18c0.06-0.23,0.09-0.46,0.11-0.69c0-0.07,0-0.15,0-0.22 h-0.35L40.2,62c0.01-0.12,0.01-0.24,0-0.35c-0.03-0.19-0.08-0.37-0.13-0.55c0.01-0.06,0.01-0.13,0-0.19 c-0.08-0.23-0.18-0.46-0.31-0.67c-0.07-0.12-0.15-0.23-0.24-0.34l-0.28,0.21l0.19-0.34l-0.12-0.15c-0.09-0.1-0.19-0.19-0.29-0.28 l-0.24,0.27l0.13-0.36l-0.14-0.13c-0.16-0.12-0.33-0.22-0.51-0.32l-0.13-0.07c-0.23-0.11-0.47-0.2-0.72-0.27l-20.18-5.33 c0.05-2.6,0.42-5.18,1.08-7.68c0.96-3.5,1.45-7.11,1.46-10.73V15.25c2.61,2.6,5.88,5.81,8.5,8.46c1.19,1.18,2.79,1.85,4.47,1.86 c0.57,0,1.14-0.08,1.68-0.24c3-0.85,8.87-1.38,15.3-1.38s12.23,0.54,15.2,1.33c0.55,0.16,1.13,0.24,1.71,0.24 c1.68-0.01,3.28-0.67,4.47-1.86c2.62-2.62,5.88-5.88,8.48-8.46v19.5c-0.01,3.53,0.46,7.05,1.4,10.46c0.75,2.68,1.14,5.45,1.18,8.24 l-19.24,5.07c-0.24,0.06-0.47,0.15-0.69,0.26c-0.13,0.07-0.25,0.14-0.36,0.22l0.2,0.29l-0.31-0.22l-0.15,0.09 c-0.1,0.07-0.19,0.15-0.27,0.24l0.25,0.25l-0.38-0.13l-0.15,0.15c-0.07,0.08-0.13,0.16-0.19,0.25l0.29,0.2h-0.4 c-0.05,0.07-0.1,0.14-0.14,0.21c-0.13,0.22-0.23,0.45-0.32,0.69c-0.03,0.09-0.05,0.19-0.07,0.28c-0.04,0.15-0.08,0.3-0.11,0.45 c-0.01,0.11-0.01,0.23,0,0.34h0.35l-0.35,0.18c0,0.08,0,0.16,0,0.24c0.02,0.25,0.06,0.5,0.12,0.74v0.15 c0.05,0.17,0.11,0.34,0.19,0.51l0.11,0.2c0.07,0.14,0.16,0.27,0.25,0.4l0.16,0.2c0.09,0.11,0.19,0.22,0.29,0.32l0.2,0.18 c0.13,0.11,0.26,0.2,0.4,0.29l0.18,0.11c0.2,0.12,0.42,0.21,0.64,0.29l14.71,5.04c-1.63,2.68-3.65,5.11-5.98,7.21 c-5.93,5.41-13.67,8.39-21.7,8.34c-1.18,0-2.36-0.07-3.53-0.19c-9.9-1.11-18.74-6.69-24.02-15.13L37.74,65.78z"></path> </g> </svg> 