<?xml version="1.0" encoding="UTF-8"?> <svg xmlns="http://www.w3.org/2000/svg" xmlns:xlink="http://www.w3.org/1999/xlink" version="1.1" id="Layer_1" x="0px" y="0px" viewBox="0 0 100 100" style="enable-background:new 0 0 100 100;" xml:space="preserve"> <g> <path d="M25.64,99.91c-3.32,0.01-6.5-1.33-8.81-3.71C9.47,88.46,5.05,78.38,4.34,67.72v-0.14l-0.18-0.1 c-2.54-1.4-4.13-4.07-4.15-6.97v-6.29c-0.01-4.43,3.58-8.02,8-8.03c0.01,0,0.03,0,0.04,0h2.67v-0.43c-0.11-0.69-0.18-1.39-0.2-2.09 c-0.01-7.98,5.74-14.8,13.61-16.14h0.2l0.09-0.18c3.19-7.19,11.61-10.42,18.8-7.23c2.64,1.17,4.86,3.12,6.36,5.58l0.15,0.25 l0.28-0.09c1.36-0.42,2.77-0.64,4.19-0.65c3.82,0.01,7.48,1.55,10.15,4.29l0.2,0.21l0.25-0.15c7.79-4.58,17.81-1.98,22.39,5.81 c1.48,2.51,2.26,5.38,2.26,8.3c0,0.69-0.05,1.37-0.14,2.05v0.43h2.67c4.43,0,8.01,3.59,8.01,8.01c0,0,0,0,0,0v6.29 c-0.02,2.9-1.61,5.57-4.15,6.97l-0.18,0.1v0.2c-0.7,10.66-5.12,20.73-12.48,28.47c-2.3,2.4-5.48,3.77-8.81,3.77L25.64,99.91z M12.12,68.84c0.89,8.28,4.5,16.03,10.26,22.04c0.86,0.87,2.03,1.37,3.26,1.36h48.68c1.23,0.01,2.41-0.49,3.27-1.37 c5.76-6,9.37-13.75,10.25-22.03v-0.42H12.08L12.12,68.84z M7.66,60.79h84.62v-7.04H7.68L7.66,60.79z M26.92,34.87 c-4.86,0.03-8.78,3.99-8.76,8.85c0,0.71,0.09,1.42,0.27,2.1l0.1,0.36h62.9l0.08-0.29c1.23-4.71-1.59-9.52-6.29-10.75 c-0.71-0.19-1.44-0.28-2.17-0.29c-2.46,0-4.8,1.04-6.45,2.87c-0.11,0.11-0.22,0.21-0.34,0.3l-0.14,0.13l-0.11,0.1l-0.24,0.14 c-0.14,0.09-0.28,0.18-0.43,0.25l-0.25,0.11c-0.16,0.07-0.33,0.12-0.5,0.16h-1.01c-0.25-0.01-0.51-0.05-0.75-0.11h-0.23 c-0.3-0.09-0.59-0.22-0.86-0.39l-0.18-0.13c-0.13-0.08-0.26-0.18-0.38-0.28l-0.1-0.1l-0.1-0.11l-0.19-0.21 c-0.21-0.25-0.39-0.53-0.53-0.83c-1.07-2.42-3.47-3.98-6.11-3.99c-1.5-0.01-2.95,0.49-4.13,1.42l-0.13,0.08l-0.35,0.23l-0.31,0.16 l-0.34,0.13l-0.38,0.11h-1.38l-0.39-0.04h-0.26c-0.14-0.05-0.27-0.11-0.4-0.18l-0.23-0.1c-0.2-0.11-0.4-0.24-0.58-0.39l-0.11-0.11 c-0.14-0.12-0.27-0.26-0.39-0.4l-0.14-0.19c-0.1-0.13-0.19-0.26-0.26-0.4l-0.13-0.25c0-0.13-0.1-0.25-0.15-0.39 c-0.05-0.14-0.06-0.21-0.09-0.31v-0.15c-0.7-3.61-4.21-5.97-7.82-5.27c-2.63,0.51-4.7,2.55-5.25,5.18 c-0.05,0.25-0.13,0.49-0.23,0.73l-0.06,0.13c-0.08,0.18-0.18,0.36-0.29,0.53l-0.11,0.14l-0.18,0.21c-0.06,0.08-0.12,0.15-0.19,0.21 l-0.16,0.14c-0.13,0.12-0.26,0.23-0.4,0.33c-0.53,0.34-1.13,0.55-1.75,0.6l-0.21-0.05h-0.2H26.92z"></path> <path style="fill:#91F200;" d="M7.68,53.78H92.3v7.04H7.68V53.78z"></path> <circle cx="60.46" cy="14.33" r="5.91"></circle> <circle cx="77.24" cy="5.94" r="5.91"></circle> </g> </svg> 