<?xml version="1.0" encoding="UTF-8"?> <svg xmlns="http://www.w3.org/2000/svg" id="Layer_2" viewBox="0 0 74.74 79.4"><g id="Layer_2-2"><g><path d="M26.19,56.08c.63,0,1.25,.11,1.83,.34,2.58,.98,3.87,3.87,2.89,6.45-.41,1.07-1.18,1.97-2.17,2.55l-.51,.3,.79,2.54c1.28,4.13,5.66,6.44,9.79,5.17,.41-.13,.82-.29,1.21-.49,4.6-2.36,6.74-7.77,5-12.64l-7.22-20.33c-.4-1.14-1.29-2.05-2.42-2.47-1.12-.44-2.37-.37-3.43,.2l-19.4,10.23c-4.43,2.36-6.43,7.64-4.67,12.34l.17,.46c1.51,3.95,5.93,5.93,9.88,4.42,.39-.15,.76-.33,1.12-.54l2.5-1.47-.17-.55c-.83-2.63,.64-5.44,3.27-6.27,.49-.15,1-.23,1.51-.23h.03Z" fill="#7ac143"></path><path d="M36.51,79.4c-5.9,0-11.1-3.85-12.84-9.48l-.4-1.28-1.36,.8c-6.31,3.7-14.43,1.58-18.13-4.73-.38-.64-.7-1.31-.96-2.01l-.17-.46c-2.78-7.35,.34-15.61,7.29-19.28l19.44-10.26c4.77-2.5,10.65-.65,13.15,4.11,.21,.41,.4,.83,.55,1.27l7.3,20.35c2.69,7.54-.65,15.91-7.79,19.53-1.89,.95-3.97,1.44-6.08,1.44Zm-10.32-23.32c.63,0,1.25,.11,1.83,.34,2.58,.98,3.87,3.87,2.89,6.45-.41,1.07-1.18,1.97-2.17,2.55l-.51,.3,.79,2.54c1.28,4.13,5.66,6.44,9.79,5.17,.41-.13,.82-.29,1.21-.49,4.6-2.36,6.74-7.77,5-12.64l-7.22-20.33c-.4-1.14-1.29-2.05-2.42-2.47-1.12-.44-2.37-.37-3.43,.2l-19.4,10.23c-4.43,2.36-6.43,7.64-4.67,12.34l.17,.46c1.51,3.95,5.93,5.93,9.88,4.42,.39-.15,.76-.33,1.12-.54l2.5-1.47-.17-.55c-.83-2.63,.64-5.44,3.27-6.27,.49-.15,1-.23,1.51-.23h.03Z" fill="#282828"></path><path d="M54.13,35.7c-1.09,0-2.18-.2-3.2-.59-2.94-1.23-5.11-3.79-5.85-6.89-.83-3.24-.6-6.65,.65-9.75,1.17-3.13,3.3-5.81,6.1-7.64,1.71-1.1,3.7-1.7,5.73-1.73,1.11,0,2.21,.2,3.24,.6,5.59,2.17,7.92,9.63,5.21,16.64-2.16,5.52-7.04,9.36-11.88,9.36Zm3.4-21c-.97,.04-1.92,.34-2.73,.88-3.55,2.5-5.26,6.88-4.33,11.12,.3,1.38,1.21,2.54,2.48,3.16,.39,.15,.81,.22,1.23,.22,2.47,0,5.31-2.49,6.59-5.8,1.55-4,.61-8.37-2-9.39-.4-.14-.82-.21-1.24-.19Z" fill="#282828"></path><path d="M31.85,26.61c-1.11,0-2.21-.2-3.24-.6-5.59-2.17-7.92-9.63-5.2-16.64C25.58,3.77,30.38,0,35.27,0c1.09,0,2.18,.2,3.2,.59,2.79,1.16,4.9,3.55,5.7,6.47,.99,3.35,.81,6.93-.5,10.17-1.16,3.13-3.3,5.81-6.09,7.64-1.71,1.11-3.69,1.71-5.73,1.74Zm3.37-21c-2.47,0-5.31,2.5-6.59,5.8-1.55,4-.61,8.37,2,9.39,.39,.15,.81,.23,1.23,.23,.97-.04,1.92-.34,2.73-.88,1.77-1.2,3.11-2.92,3.85-4.92,1.55-4,.61-8.37-2-9.39-.39-.15-.8-.24-1.22-.24h0Z" fill="#282828"></path><path d="M9.31,35.7c-.5,0-.99-.04-1.48-.13-2.82-.56-5.22-2.41-6.46-5C.08,27.89-.31,24.86,.25,21.93c.47-2.94,1.87-5.66,4-7.74,1.71-1.64,3.98-2.58,6.35-2.62,.49,0,.97,.04,1.45,.13,5.44,1,8.76,7,7.58,13.67-1.04,5.94-5.39,10.33-10.32,10.33Zm1.29-18.55c-.95,.05-1.84,.45-2.51,1.13-1.24,1.25-2.05,2.87-2.32,4.61-.33,1.71-.12,3.49,.61,5.07,.46,1.01,1.37,1.75,2.45,2,.17,.01,.33,.01,.5,0,2.17,0,4.24-2.46,4.82-5.73,.63-3.55-.74-6.76-3-7.17-.18,0-.37,.02-.55,.05v.04Z" fill="#282828"></path><path d="M62.27,59.07c-1.63,.01-3.24-.44-4.62-1.31-2.39-1.58-3.91-4.2-4.08-7.06-.18-2.97,.61-5.93,2.24-8.42,2.46-3.88,6.38-6.3,10.23-6.3,1.62-.01,3.22,.44,4.59,1.31,4.67,3,5.47,9.77,1.83,15.52-1.55,2.55-3.88,4.52-6.65,5.63-1.13,.42-2.33,.64-3.54,.63Zm3.73-17.53c-1.89,0-4,1.45-5.45,3.7-.98,1.48-1.47,3.23-1.39,5,.02,1.13,.57,2.17,1.49,2.83,.48,.3,1.04,.46,1.61,.45,.54,0,1.08-.11,1.58-.31,1.62-.69,2.98-1.87,3.89-3.38,1.93-3,1.89-6.54-.09-7.79-.49-.32-1.06-.5-1.65-.5h.01Z" fill="#282828"></path></g></g></svg> 