<?xml version="1.0" encoding="UTF-8"?> <svg xmlns="http://www.w3.org/2000/svg" id="Layer_2" viewBox="0 0 80.01 79.98"><g id="Layer_2-2"><g><path d="M35.66,38.98h7.84c6.49,0,11.75,5.26,11.75,11.75h0v23.5H23.92v-23.5c0-6.49,5.25-11.74,11.74-11.75Z" fill="#7ac143"></path><path d="M5.63,39.05l2.69-2.58v36.84c0,3.68,2.99,6.67,6.67,6.67h50c3.68,0,6.67-2.99,6.67-6.67V36.46l2.69,2.59c1.33,1.28,3.44,1.24,4.72-.08,1.28-1.33,1.24-3.44-.08-4.73l-8.28-8h0L45.88,2.42c-3.24-3.23-8.49-3.23-11.73,0L9.31,26.27h0L1.02,34.27c-1.33,1.28-1.37,3.38-.09,4.71,1.28,1.33,3.38,1.37,4.71,.09h0v-.02Zm45.99,34.27H28.32v-23.34c0-3.68,2.99-6.67,6.67-6.67h10c3.68,0,6.67,2.99,6.67,6.67l-.03,23.34ZM38.81,7.14c.65-.66,1.71-.67,2.38-.02,0,0,.02,.02,.02,.02l23.78,22.91v43.26h-6.67v-23.33c-.01-7.36-5.97-13.32-13.33-13.33h-10c-7.36,.01-13.32,5.97-13.33,13.33v23.33h-6.67V30.05L38.81,7.14Z" fill="#282828"></path></g></g></svg> 