<?xml version="1.0" encoding="UTF-8"?> <svg xmlns="http://www.w3.org/2000/svg" id="Layer_2" viewBox="0 0 96 73"><g id="Layer_2-2"><g><path d="M86.51,14.41l4.84,25.39c.3,1.56-.73,3.07-2.29,3.37-.18,.03-.36,.05-.54,.05h-3.42c-1.15,0-2.19-.67-2.65-1.72l-11.79-27.14c-.64-1.46,.02-3.16,1.47-3.8,.52-.23,1.09-.3,1.65-.2l10.37,1.74c1.19,.2,2.14,1.12,2.36,2.31Z" fill="#7ac143"></path><path d="M9.54,15.69l-4.84,25.39c-.3,1.56,.73,3.07,2.29,3.37,.18,.03,.37,.05,.55,.05h3.46c1.15,0,2.18-.68,2.64-1.73L25.39,15.65c.64-1.46-.02-3.16-1.47-3.8-.52-.23-1.09-.3-1.65-.2l-10.37,1.74c-1.19,.2-2.13,1.11-2.36,2.3Z" fill="#7ac143"></path><circle cx="37.77" cy="35.02" r="5.16" fill="#282828"></circle><circle cx="58.41" cy="35.02" r="5.16" fill="#282828"></circle><path d="M94.52,25.81c-.78-7.34-5.79-13.53-12.8-15.82l-17-5.54C53.12-2.14,38.74-1.36,27.92,6.45l-13.64,4.44C7.27,13.17,2.26,19.36,1.48,26.69l-1.48,12.81v.36c0,4.83,3.91,8.74,8.74,8.75h.06c3.24-.01,6.21-1.83,7.7-4.71l2.14-4,2.78,12.6c0,.08,0,.17,.06,.25,3.6,12.05,14.71,20.3,27.29,20.25,13.41-.06,24.99-9.41,27.88-22.5,0-.1,0-.2,.05-.3l1.2-10.19,1.56,3c1.48,2.9,4.46,4.73,7.72,4.75h.06c4.83,0,8.75-3.91,8.76-8.74,0-.01,0-.02,0-.03l-1.48-13.18ZM10.88,40.98c-.4,.79-1.22,1.3-2.11,1.3-.64,.03-1.26-.23-1.7-.69-.42-.41-.67-.96-.7-1.55l1.43-12.67c.51-4.84,3.81-8.93,8.44-10.44l8.89-2.9-14.25,26.95Zm59.53,8.34c-2.06,8.99-9.45,15.78-18.58,17.09v-7.16c0-.15,0-.29,0-.44,3.61-1,6.17-3.38,6.17-6.22,0-3.68-4.28-6.66-9.57-6.66s-9.57,3-9.57,6.66c0,2.79,2.47,5.18,6,6.17-.01,.16-.01,.33,0,.49v7c-8.15-1.42-14.82-7.29-17.26-15.2l-4.34-19.87,11.34-21.44c4.08-2.22,8.66-3.39,13.31-3.39,5.02,.02,9.94,1.38,14.26,3.95l10.5,19.84-2.26,19.18Zm18.53-8.64c-.46,.43-1.07,.68-1.7,.69-.9,0-1.73-.52-2.13-1.33l-14.25-26.9,8.89,2.9c4.63,1.52,7.94,5.61,8.45,10.46l1.43,12.63c-.03,.59-.28,1.14-.7,1.55h0Z" fill="#282828"></path></g></g></svg> 